{"glyphs":{"0":{"ha":1000,"x_min":0,"x_max":875,"o":"m 625 125 l 250 125 l 250 250 l 125 250 l 125 375 l 0 375 l 0 750 l 125 750 l 125 875 l 250 875 l 250 1000 l 625 1000 l 625 875 l 750 875 l 750 750 l 875 750 l 875 375 l 750 375 l 750 250 l 625 250 l 625 125 z m 375 375 l 375 250 l 625 250 l 625 750 l 500 750 l 500 875 l 250 875 l 250 375 l 375 375 z"},"1":{"ha":1000,"x_min":125,"x_max":875,"o":"m 875 125 l 125 125 l 125 250 l 375 250 l 375 750 l 250 750 l 250 875 l 375 875 l 375 1000 l 625 1000 l 625 250 l 875 250 l 875 125 z"},"2":{"ha":1000,"x_min":0,"x_max":875,"o":"m 875 125 l 0 125 l 0 375 l 125 375 l 125 500 l 250 500 l 250 625 l 500 625 l 500 750 l 625 750 l 625 875 l 250 875 l 250 750 l 0 750 l 0 875 l 125 875 l 125 1000 l 750 1000 l 750 875 l 875 875 l 875 625 l 750 625 l 750 500 l 625 500 l 625 375 l 375 375 l 375 250 l 875 250 l 875 125 z"},"3":{"ha":1000,"x_min":0,"x_max":875,"o":"m 750 125 l 125 125 l 125 250 l 0 250 l 0 375 l 250 375 l 250 250 l 625 250 l 625 500 l 250 500 l 250 625 l 375 625 l 375 750 l 500 750 l 500 875 l 125 875 l 125 1000 l 875 1000 l 875 875 l 750 875 l 750 750 l 625 750 l 625 625 l 750 625 l 750 500 l 875 500 l 875 250 l 750 250 l 750 125 z"},"4":{"ha":1000,"x_min":0,"x_max":875,"o":"m 750 125 l 500 125 l 500 375 l 0 375 l 0 625 l 125 625 l 125 750 l 250 750 l 250 875 l 375 875 l 375 1000 l 750 1000 l 750 500 l 875 500 l 875 375 l 750 375 l 750 125 z m 250 625 l 250 500 l 500 500 l 500 750 l 375 750 l 375 625 l 250 625 z"},"5":{"ha":1000,"x_min":0,"x_max":875,"o":"m 750 125 l 125 125 l 125 250 l 0 250 l 0 375 l 250 375 l 250 250 l 625 250 l 625 625 l 0 625 l 0 1000 l 750 1000 l 750 875 l 250 875 l 250 750 l 750 750 l 750 625 l 875 625 l 875 250 l 750 250 l 750 125 z"},"6":{"ha":1000,"x_min":0,"x_max":875,"o":"m 750 125 l 125 125 l 125 250 l 0 250 l 0 750 l 125 750 l 125 875 l 250 875 l 250 1000 l 750 1000 l 750 875 l 375 875 l 375 750 l 250 750 l 250 625 l 750 625 l 750 500 l 875 500 l 875 250 l 750 250 l 750 125 z m 250 500 l 250 250 l 625 250 l 625 500 l 250 500 z"},"7":{"ha":1000,"x_min":0,"x_max":875,"o":"m 500 125 l 250 125 l 250 500 l 375 500 l 375 625 l 500 625 l 500 750 l 625 750 l 625 875 l 250 875 l 250 750 l 0 750 l 0 1000 l 875 1000 l 875 750 l 750 750 l 750 625 l 625 625 l 625 500 l 500 500 l 500 125 z"},"8":{"ha":1000,"x_min":0,"x_max":875,"o":"m 750 125 l 125 125 l 125 250 l 0 250 l 0 500 l 125 500 l 125 625 l 0 625 l 0 875 l 125 875 l 125 1000 l 625 1000 l 625 875 l 750 875 l 750 625 l 625 625 l 625 500 l 875 500 l 875 250 l 750 250 l 750 125 z m 375 750 l 375 625 l 625 625 l 625 875 l 250 875 l 250 750 l 375 750 z m 125 500 l 125 250 l 625 250 l 625 375 l 375 375 l 375 500 l 125 500 z"},"9":{"ha":1000,"x_min":0,"x_max":875,"o":"m 625 125 l 125 125 l 125 250 l 500 250 l 500 375 l 625 375 l 625 500 l 125 500 l 125 625 l 0 625 l 0 875 l 125 875 l 125 1000 l 750 1000 l 750 875 l 875 875 l 875 375 l 750 375 l 750 250 l 625 250 l 625 125 z m 250 875 l 250 625 l 625 625 l 625 875 l 250 875 z"}," ":{"ha":1000,"x_min":0,"x_max":0,"o":""},"A":{"ha":1000,"x_min":0,"x_max":875,"o":"m 250 125 l 0 125 l 0 750 l 125 750 l 125 875 l 250 875 l 250 1000 l 625 1000 l 625 875 l 750 875 l 750 750 l 875 750 l 875 125 l 625 125 l 625 375 l 250 375 l 250 125 z m 250 750 l 250 500 l 625 500 l 625 750 l 500 750 l 500 875 l 375 875 l 375 750 l 250 750 z"},"Á":{"ha":1000,"x_min":0,"x_max":875,"o":"m 625 1000 l 625 875 l 500 875 l 500 1000 l 625 1000 z m 750 500 l 875 500 l 875 125 l 625 125 l 625 250 l 250 250 l 250 125 l 0 125 l 0 500 l 125 500 l 125 625 l 250 625 l 250 750 l 375 750 l 375 875 l 500 875 l 500 750 l 625 750 l 625 625 l 750 625 l 750 500 z m 625 375 l 625 500 l 500 500 l 500 625 l 375 625 l 375 500 l 250 500 l 250 375 l 625 375 z"},"Â":{"ha":1000,"x_min":0,"x_max":875,"o":"m 250 125 l 0 125 l 0 500 l 125 500 l 125 625 l 250 625 l 250 750 l 125 750 l 125 875 l 250 875 l 250 1000 l 625 1000 l 625 875 l 750 875 l 750 750 l 625 750 l 625 625 l 750 625 l 750 500 l 875 500 l 875 125 l 625 125 l 625 250 l 250 250 l 250 125 z m 375 875 l 375 750 l 500 750 l 500 875 l 375 875 z m 250 500 l 250 375 l 625 375 l 625 500 l 500 500 l 500 625 l 375 625 l 375 500 l 250 500 z"},"Ä":{"ha":1000,"x_min":0,"x_max":875,"o":"m 375 875 l 125 875 l 125 1000 l 375 1000 l 375 875 z m 750 875 l 500 875 l 500 1000 l 750 1000 l 750 875 z m 250 125 l 0 125 l 0 500 l 125 500 l 125 625 l 250 625 l 250 750 l 625 750 l 625 625 l 750 625 l 750 500 l 875 500 l 875 125 l 625 125 l 625 250 l 250 250 l 250 125 z m 250 500 l 250 375 l 625 375 l 625 500 l 500 500 l 500 625 l 375 625 l 375 500 l 250 500 z"},"À":{"ha":1000,"x_min":0,"x_max":875,"o":"m 250 1000 l 375 1000 l 375 875 l 250 875 l 250 1000 z m 750 500 l 875 500 l 875 125 l 625 125 l 625 250 l 250 250 l 250 125 l 0 125 l 0 500 l 125 500 l 125 625 l 250 625 l 250 750 l 375 750 l 375 875 l 500 875 l 500 750 l 625 750 l 625 625 l 750 625 l 750 500 z m 625 375 l 625 500 l 500 500 l 500 625 l 375 625 l 375 500 l 250 500 l 250 375 l 625 375 z"},"Å":{"ha":1000,"x_min":0,"x_max":875,"o":"m 250 125 l 0 125 l 0 500 l 125 500 l 125 625 l 250 625 l 250 875 l 375 875 l 375 1000 l 500 1000 l 500 875 l 625 875 l 625 625 l 750 625 l 750 500 l 875 500 l 875 125 l 625 125 l 625 250 l 250 250 l 250 125 z m 375 875 l 375 750 l 500 750 l 500 875 l 375 875 z m 250 500 l 250 375 l 625 375 l 625 500 l 500 500 l 500 625 l 375 625 l 375 500 l 250 500 z"},"Ã":{"ha":1000,"x_min":0,"x_max":875,"o":"m 750 500 l 875 500 l 875 125 l 625 125 l 625 250 l 250 250 l 250 125 l 0 125 l 0 500 l 125 500 l 125 625 l 250 625 l 250 750 l 375 750 l 375 875 l 250 875 l 250 1000 l 500 1000 l 500 875 l 625 875 l 625 625 l 750 625 l 750 500 z m 750 1000 l 750 875 l 625 875 l 625 1000 l 750 1000 z m 125 875 l 250 875 l 250 750 l 125 750 l 125 875 z m 625 375 l 625 500 l 500 500 l 500 625 l 375 625 l 375 500 l 250 500 l 250 375 l 625 375 z"},"Æ":{"ha":1000,"x_min":0,"x_max":875,"o":"m 250 125 l 0 125 l 0 750 l 125 750 l 125 875 l 250 875 l 250 1000 l 875 1000 l 875 875 l 625 875 l 625 625 l 875 625 l 875 500 l 625 500 l 625 250 l 875 250 l 875 125 l 375 125 l 375 375 l 250 375 l 250 125 z m 250 750 l 250 500 l 375 500 l 375 750 l 250 750 z"},"B":{"ha":1000,"x_min":0,"x_max":875,"o":"m 750 125 l 0 125 l 0 1000 l 750 1000 l 750 875 l 875 875 l 875 625 l 750 625 l 750 500 l 875 500 l 875 250 l 750 250 l 750 125 z m 250 875 l 250 625 l 625 625 l 625 875 l 250 875 z m 250 500 l 250 250 l 625 250 l 625 500 l 250 500 z"},"C":{"ha":1000,"x_min":0,"x_max":875,"o":"m 750 125 l 250 125 l 250 250 l 125 250 l 125 375 l 0 375 l 0 750 l 125 750 l 125 875 l 250 875 l 250 1000 l 750 1000 l 750 875 l 875 875 l 875 750 l 625 750 l 625 875 l 375 875 l 375 750 l 250 750 l 250 375 l 375 375 l 375 250 l 625 250 l 625 375 l 875 375 l 875 250 l 750 250 l 750 125 z"},"Ç":{"ha":1000,"x_min":0,"x_max":875,"o":"m 750 875 l 875 875 l 875 750 l 625 750 l 625 875 l 375 875 l 375 750 l 250 750 l 250 500 l 375 500 l 375 375 l 625 375 l 625 500 l 875 500 l 875 375 l 750 375 l 750 250 l 625 250 l 625 125 l 500 125 l 500 250 l 250 250 l 250 375 l 125 375 l 125 500 l 0 500 l 0 750 l 125 750 l 125 875 l 250 875 l 250 1000 l 750 1000 l 750 875 z m 250 0 l 250 125 l 500 125 l 500 0 l 250 0 z"},"D":{"ha":1000,"x_min":0,"x_max":875,"o":"m 625 125 l 0 125 l 0 1000 l 625 1000 l 625 875 l 750 875 l 750 750 l 875 750 l 875 375 l 750 375 l 750 250 l 625 250 l 625 125 z m 250 875 l 250 250 l 500 250 l 500 375 l 625 375 l 625 750 l 500 750 l 500 875 l 250 875 z"},"Ð":{"ha":1000,"x_min":0,"x_max":875,"o":"m 625 125 l 125 125 l 125 500 l 0 500 l 0 625 l 125 625 l 125 1000 l 625 1000 l 625 875 l 750 875 l 750 750 l 875 750 l 875 375 l 750 375 l 750 250 l 625 250 l 625 125 z m 375 500 l 375 250 l 500 250 l 500 375 l 625 375 l 625 750 l 500 750 l 500 875 l 375 875 l 375 625 l 500 625 l 500 500 l 375 500 z"},"E":{"ha":1000,"x_min":0,"x_max":875,"o":"m 875 125 l 0 125 l 0 1000 l 875 1000 l 875 875 l 250 875 l 250 625 l 750 625 l 750 500 l 250 500 l 250 250 l 875 250 l 875 125 z"},"É":{"ha":1000,"x_min":0,"x_max":875,"o":"m 625 1000 l 625 875 l 500 875 l 500 1000 l 625 1000 z m 500 750 l 875 750 l 875 625 l 250 625 l 250 500 l 750 500 l 750 375 l 250 375 l 250 250 l 875 250 l 875 125 l 0 125 l 0 750 l 375 750 l 375 875 l 500 875 l 500 750 z"},"Ê":{"ha":1000,"x_min":0,"x_max":875,"o":"m 875 125 l 0 125 l 0 750 l 125 750 l 125 875 l 250 875 l 250 1000 l 625 1000 l 625 875 l 750 875 l 750 750 l 875 750 l 875 625 l 250 625 l 250 500 l 750 500 l 750 375 l 250 375 l 250 250 l 875 250 l 875 125 z m 375 875 l 375 750 l 500 750 l 500 875 l 375 875 z"},"Ë":{"ha":1000,"x_min":0,"x_max":875,"o":"m 375 875 l 125 875 l 125 1000 l 375 1000 l 375 875 z m 750 875 l 500 875 l 500 1000 l 750 1000 l 750 875 z m 875 125 l 0 125 l 0 750 l 875 750 l 875 625 l 250 625 l 250 500 l 750 500 l 750 375 l 250 375 l 250 250 l 875 250 l 875 125 z"},"È":{"ha":1000,"x_min":0,"x_max":875,"o":"m 250 1000 l 375 1000 l 375 875 l 250 875 l 250 1000 z m 500 750 l 875 750 l 875 625 l 250 625 l 250 500 l 750 500 l 750 375 l 250 375 l 250 250 l 875 250 l 875 125 l 0 125 l 0 750 l 375 750 l 375 875 l 500 875 l 500 750 z"},"F":{"ha":1000,"x_min":0,"x_max":875,"o":"m 250 125 l 0 125 l 0 1000 l 875 1000 l 875 875 l 250 875 l 250 625 l 750 625 l 750 500 l 250 500 l 250 125 z"},"G":{"ha":1000,"x_min":0,"x_max":875,"o":"m 875 125 l 250 125 l 250 250 l 125 250 l 125 375 l 0 375 l 0 750 l 125 750 l 125 875 l 250 875 l 250 1000 l 875 1000 l 875 875 l 375 875 l 375 750 l 250 750 l 250 375 l 375 375 l 375 250 l 625 250 l 625 500 l 500 500 l 500 625 l 875 625 l 875 125 z"},"H":{"ha":1000,"x_min":0,"x_max":875,"o":"m 250 125 l 0 125 l 0 1000 l 250 1000 l 250 625 l 625 625 l 625 1000 l 875 1000 l 875 125 l 625 125 l 625 500 l 250 500 l 250 125 z"},"I":{"ha":1000,"x_min":125,"x_max":875,"o":"m 875 125 l 125 125 l 125 250 l 375 250 l 375 875 l 125 875 l 125 1000 l 875 1000 l 875 875 l 625 875 l 625 250 l 875 250 l 875 125 z"},"Í":{"ha":1000,"x_min":125,"x_max":875,"o":"m 625 1000 l 625 875 l 500 875 l 500 1000 l 625 1000 z m 500 750 l 875 750 l 875 625 l 625 625 l 625 250 l 875 250 l 875 125 l 125 125 l 125 250 l 375 250 l 375 625 l 125 625 l 125 750 l 375 750 l 375 875 l 500 875 l 500 750 z"},"Î":{"ha":1000,"x_min":125,"x_max":875,"o":"m 875 125 l 125 125 l 125 250 l 375 250 l 375 625 l 125 625 l 125 750 l 250 750 l 250 875 l 375 875 l 375 1000 l 625 1000 l 625 875 l 750 875 l 750 750 l 875 750 l 875 625 l 625 625 l 625 250 l 875 250 l 875 125 z"},"Ï":{"ha":1000,"x_min":125,"x_max":875,"o":"m 375 875 l 125 875 l 125 1000 l 375 1000 l 375 875 z m 875 875 l 625 875 l 625 1000 l 875 1000 l 875 875 z m 875 125 l 125 125 l 125 250 l 375 250 l 375 625 l 125 625 l 125 750 l 875 750 l 875 625 l 625 625 l 625 250 l 875 250 l 875 125 z"},"Ì":{"ha":1000,"x_min":125,"x_max":875,"o":"m 375 1000 l 500 1000 l 500 875 l 375 875 l 375 1000 z m 625 750 l 875 750 l 875 625 l 625 625 l 625 250 l 875 250 l 875 125 l 125 125 l 125 250 l 375 250 l 375 625 l 125 625 l 125 750 l 500 750 l 500 875 l 625 875 l 625 750 z"},"J":{"ha":1000,"x_min":0,"x_max":875,"o":"m 750 125 l 125 125 l 125 250 l 0 250 l 0 375 l 250 375 l 250 250 l 625 250 l 625 1000 l 875 1000 l 875 250 l 750 250 l 750 125 z"},"K":{"ha":1000,"x_min":0,"x_max":875,"o":"m 250 125 l 0 125 l 0 1000 l 250 1000 l 250 625 l 375 625 l 375 750 l 500 750 l 500 875 l 625 875 l 625 1000 l 875 1000 l 875 875 l 750 875 l 750 750 l 625 750 l 625 625 l 500 625 l 500 500 l 625 500 l 625 375 l 750 375 l 750 250 l 875 250 l 875 125 l 500 125 l 500 250 l 375 250 l 375 375 l 250 375 l 250 125 z"},"L":{"ha":1000,"x_min":125,"x_max":875,"o":"m 875 125 l 125 125 l 125 1000 l 375 1000 l 375 250 l 875 250 l 875 125 z"},"M":{"ha":1000,"x_min":0,"x_max":875,"o":"m 250 125 l 0 125 l 0 1000 l 250 1000 l 250 875 l 375 875 l 375 750 l 500 750 l 500 875 l 625 875 l 625 1000 l 875 1000 l 875 125 l 625 125 l 625 625 l 500 625 l 500 375 l 375 375 l 375 625 l 250 625 l 250 125 z"},"N":{"ha":1000,"x_min":0,"x_max":875,"o":"m 250 125 l 0 125 l 0 1000 l 250 1000 l 250 875 l 375 875 l 375 750 l 500 750 l 500 625 l 625 625 l 625 1000 l 875 1000 l 875 125 l 625 125 l 625 375 l 500 375 l 500 500 l 375 500 l 375 625 l 250 625 l 250 125 z"},"Ñ":{"ha":1000,"x_min":0,"x_max":875,"o":"m 375 750 l 375 875 l 250 875 l 250 1000 l 500 1000 l 500 875 l 625 875 l 625 750 l 375 750 z m 750 1000 l 750 875 l 625 875 l 625 1000 l 750 1000 z m 625 750 l 875 750 l 875 125 l 500 125 l 500 250 l 375 250 l 375 375 l 250 375 l 250 125 l 0 125 l 0 750 l 125 750 l 125 875 l 250 875 l 250 750 l 375 750 l 375 625 l 500 625 l 500 500 l 625 500 l 625 750 z"},"O":{"ha":1000,"x_min":0,"x_max":875,"o":"m 750 125 l 125 125 l 125 250 l 0 250 l 0 875 l 125 875 l 125 1000 l 750 1000 l 750 875 l 875 875 l 875 250 l 750 250 l 750 125 z m 250 875 l 250 250 l 625 250 l 625 875 l 250 875 z"},"Ó":{"ha":1000,"x_min":0,"x_max":875,"o":"m 625 1000 l 625 875 l 500 875 l 500 1000 l 625 1000 z m 750 625 l 875 625 l 875 250 l 750 250 l 750 125 l 125 125 l 125 250 l 0 250 l 0 625 l 125 625 l 125 750 l 375 750 l 375 875 l 500 875 l 500 750 l 750 750 l 750 625 z m 625 250 l 625 625 l 250 625 l 250 250 l 625 250 z"},"Ô":{"ha":1000,"x_min":0,"x_max":875,"o":"m 750 125 l 125 125 l 125 250 l 0 250 l 0 625 l 125 625 l 125 875 l 250 875 l 250 1000 l 625 1000 l 625 875 l 750 875 l 750 625 l 875 625 l 875 250 l 750 250 l 750 125 z m 375 875 l 375 750 l 500 750 l 500 875 l 375 875 z m 250 625 l 250 250 l 625 250 l 625 625 l 250 625 z"},"Ö":{"ha":1000,"x_min":0,"x_max":875,"o":"m 375 875 l 125 875 l 125 1000 l 375 1000 l 375 875 z m 750 875 l 500 875 l 500 1000 l 750 1000 l 750 875 z m 750 125 l 125 125 l 125 250 l 0 250 l 0 625 l 125 625 l 125 750 l 750 750 l 750 625 l 875 625 l 875 250 l 750 250 l 750 125 z m 250 625 l 250 250 l 625 250 l 625 625 l 250 625 z"},"Ò":{"ha":1000,"x_min":0,"x_max":875,"o":"m 250 1000 l 375 1000 l 375 875 l 250 875 l 250 1000 z m 750 625 l 875 625 l 875 250 l 750 250 l 750 125 l 125 125 l 125 250 l 0 250 l 0 625 l 125 625 l 125 750 l 375 750 l 375 875 l 500 875 l 500 750 l 750 750 l 750 625 z m 625 250 l 625 625 l 250 625 l 250 250 l 625 250 z"},"Ø":{"ha":1000,"x_min":0,"x_max":875,"o":"m 750 125 l 125 125 l 125 250 l 0 250 l 0 875 l 125 875 l 125 1000 l 750 1000 l 750 875 l 875 875 l 875 250 l 750 250 l 750 125 z m 250 375 l 250 250 l 625 250 l 625 625 l 500 625 l 500 750 l 625 750 l 625 875 l 250 875 l 250 500 l 375 500 l 375 375 l 250 375 z m 500 500 l 375 500 l 375 625 l 500 625 l 500 500 z"},"Õ":{"ha":1000,"x_min":0,"x_max":875,"o":"m 750 125 l 125 125 l 125 250 l 0 250 l 0 625 l 125 625 l 125 875 l 250 875 l 250 1000 l 500 1000 l 500 875 l 625 875 l 625 1000 l 750 1000 l 750 875 l 625 875 l 625 750 l 750 750 l 750 625 l 875 625 l 875 250 l 750 250 l 750 125 z m 250 875 l 250 750 l 375 750 l 375 875 l 250 875 z m 250 625 l 250 250 l 625 250 l 625 625 l 250 625 z"},"P":{"ha":1000,"x_min":0,"x_max":875,"o":"m 250 125 l 0 125 l 0 1000 l 750 1000 l 750 875 l 875 875 l 875 500 l 750 500 l 750 375 l 250 375 l 250 125 z m 250 875 l 250 500 l 625 500 l 625 875 l 250 875 z"},"Þ":{"ha":1000,"x_min":0,"x_max":875,"o":"m 250 125 l 0 125 l 0 1000 l 250 1000 l 250 875 l 750 875 l 750 750 l 875 750 l 875 375 l 750 375 l 750 250 l 250 250 l 250 125 z m 250 750 l 250 375 l 625 375 l 625 750 l 250 750 z"},"Q":{"ha":1000,"x_min":0,"x_max":875,"o":"m 750 875 l 875 875 l 875 375 l 750 375 l 750 250 l 625 250 l 625 125 l 125 125 l 125 250 l 0 250 l 0 875 l 125 875 l 125 1000 l 750 1000 l 750 875 z m 625 500 l 625 875 l 250 875 l 250 250 l 500 250 l 500 375 l 375 375 l 375 500 l 625 500 z m 875 125 l 750 125 l 750 250 l 875 250 l 875 125 z"},"R":{"ha":1000,"x_min":0,"x_max":875,"o":"m 250 125 l 0 125 l 0 1000 l 750 1000 l 750 875 l 875 875 l 875 500 l 625 500 l 625 375 l 750 375 l 750 250 l 875 250 l 875 125 l 500 125 l 500 250 l 375 250 l 375 375 l 250 375 l 250 125 z m 250 875 l 250 500 l 500 500 l 500 625 l 625 625 l 625 875 l 250 875 z"},"S":{"ha":1000,"x_min":0,"x_max":875,"o":"m 750 125 l 125 125 l 125 250 l 0 250 l 0 375 l 250 375 l 250 250 l 625 250 l 625 500 l 125 500 l 125 625 l 0 625 l 0 875 l 125 875 l 125 1000 l 750 1000 l 750 875 l 875 875 l 875 750 l 625 750 l 625 875 l 250 875 l 250 625 l 750 625 l 750 500 l 875 500 l 875 250 l 750 250 l 750 125 z"},"T":{"ha":1000,"x_min":125,"x_max":875,"o":"m 625 125 l 375 125 l 375 875 l 125 875 l 125 1000 l 875 1000 l 875 875 l 625 875 l 625 125 z"},"U":{"ha":1000,"x_min":0,"x_max":875,"o":"m 750 125 l 125 125 l 125 250 l 0 250 l 0 1000 l 250 1000 l 250 250 l 625 250 l 625 1000 l 875 1000 l 875 250 l 750 250 l 750 125 z"},"Ú":{"ha":1000,"x_min":0,"x_max":875,"o":"m 625 1000 l 625 875 l 500 875 l 500 1000 l 625 1000 z m 500 875 l 500 750 l 375 750 l 375 875 l 500 875 z m 625 750 l 875 750 l 875 250 l 750 250 l 750 125 l 125 125 l 125 250 l 0 250 l 0 750 l 250 750 l 250 250 l 625 250 l 625 750 z"},"Û":{"ha":1000,"x_min":0,"x_max":875,"o":"m 375 750 l 125 750 l 125 875 l 250 875 l 250 1000 l 625 1000 l 625 875 l 750 875 l 750 750 l 500 750 l 500 875 l 375 875 l 375 750 z m 750 125 l 125 125 l 125 250 l 0 250 l 0 625 l 250 625 l 250 250 l 625 250 l 625 625 l 875 625 l 875 250 l 750 250 l 750 125 z"},"Ü":{"ha":1000,"x_min":0,"x_max":875,"o":"m 375 875 l 125 875 l 125 1000 l 375 1000 l 375 875 z m 750 875 l 500 875 l 500 1000 l 750 1000 l 750 875 z m 750 125 l 125 125 l 125 250 l 0 250 l 0 750 l 250 750 l 250 250 l 625 250 l 625 750 l 875 750 l 875 250 l 750 250 l 750 125 z"},"Ù":{"ha":1000,"x_min":0,"x_max":875,"o":"m 375 1000 l 375 875 l 250 875 l 250 1000 l 375 1000 z m 500 750 l 375 750 l 375 875 l 500 875 l 500 750 z m 625 750 l 875 750 l 875 250 l 750 250 l 750 125 l 125 125 l 125 250 l 0 250 l 0 750 l 250 750 l 250 250 l 625 250 l 625 750 z"},"V":{"ha":1000,"x_min":0,"x_max":875,"o":"m 500 125 l 375 125 l 375 250 l 250 250 l 250 375 l 125 375 l 125 500 l 0 500 l 0 1000 l 250 1000 l 250 625 l 375 625 l 375 500 l 500 500 l 500 625 l 625 625 l 625 1000 l 875 1000 l 875 500 l 750 500 l 750 375 l 625 375 l 625 250 l 500 250 l 500 125 z"},"W":{"ha":1000,"x_min":0,"x_max":875,"o":"m 250 125 l 125 125 l 125 250 l 0 250 l 0 1000 l 250 1000 l 250 500 l 375 500 l 375 1000 l 500 1000 l 500 500 l 625 500 l 625 1000 l 875 1000 l 875 250 l 750 250 l 750 125 l 625 125 l 625 250 l 500 250 l 500 375 l 375 375 l 375 250 l 250 250 l 250 125 z"},"X":{"ha":1000,"x_min":0,"x_max":875,"o":"m 250 125 l 0 125 l 0 375 l 125 375 l 125 500 l 250 500 l 250 625 l 125 625 l 125 750 l 0 750 l 0 1000 l 250 1000 l 250 750 l 375 750 l 375 625 l 500 625 l 500 750 l 625 750 l 625 1000 l 875 1000 l 875 750 l 750 750 l 750 625 l 625 625 l 625 500 l 750 500 l 750 375 l 875 375 l 875 125 l 625 125 l 625 375 l 500 375 l 500 500 l 375 500 l 375 375 l 250 375 l 250 125 z"},"Y":{"ha":1000,"x_min":125,"x_max":875,"o":"m 625 125 l 375 125 l 375 500 l 250 500 l 250 625 l 125 625 l 125 1000 l 375 1000 l 375 625 l 625 625 l 625 1000 l 875 1000 l 875 625 l 750 625 l 750 500 l 625 500 l 625 125 z"},"Ý":{"ha":1000,"x_min":125,"x_max":875,"o":"m 625 1000 l 625 875 l 500 875 l 500 1000 l 625 1000 z m 500 875 l 500 750 l 375 750 l 375 875 l 500 875 z m 625 750 l 875 750 l 875 500 l 750 500 l 750 375 l 625 375 l 625 125 l 375 125 l 375 375 l 250 375 l 250 500 l 125 500 l 125 750 l 375 750 l 375 500 l 625 500 l 625 750 z"},"Z":{"ha":1000,"x_min":0,"x_max":875,"o":"m 875 125 l 0 125 l 0 375 l 125 375 l 125 500 l 250 500 l 250 625 l 375 625 l 375 750 l 500 750 l 500 875 l 0 875 l 0 1000 l 875 1000 l 875 750 l 750 750 l 750 625 l 625 625 l 625 500 l 500 500 l 500 375 l 375 375 l 375 250 l 875 250 l 875 125 z"},"a":{"ha":1000,"x_min":0,"x_max":875,"o":"m 875 125 l 125 125 l 125 250 l 0 250 l 0 375 l 125 375 l 125 500 l 625 500 l 625 625 l 125 625 l 125 750 l 750 750 l 750 625 l 875 625 l 875 125 z m 250 375 l 250 250 l 625 250 l 625 375 l 250 375 z"},"á":{"ha":1000,"x_min":0,"x_max":875,"o":"m 625 1000 l 625 875 l 500 875 l 500 1000 l 625 1000 z m 750 625 l 875 625 l 875 125 l 125 125 l 125 250 l 0 250 l 0 375 l 125 375 l 125 500 l 625 500 l 625 625 l 125 625 l 125 750 l 375 750 l 375 875 l 500 875 l 500 750 l 750 750 l 750 625 z m 625 250 l 625 375 l 250 375 l 250 250 l 625 250 z"},"â":{"ha":1000,"x_min":0,"x_max":875,"o":"m 875 125 l 125 125 l 125 250 l 0 250 l 0 375 l 125 375 l 125 500 l 625 500 l 625 625 l 125 625 l 125 875 l 250 875 l 250 1000 l 625 1000 l 625 875 l 750 875 l 750 625 l 875 625 l 875 125 z m 375 875 l 375 750 l 500 750 l 500 875 l 375 875 z m 250 375 l 250 250 l 625 250 l 625 375 l 250 375 z"},"ä":{"ha":1000,"x_min":0,"x_max":875,"o":"m 375 875 l 125 875 l 125 1000 l 375 1000 l 375 875 z m 750 875 l 500 875 l 500 1000 l 750 1000 l 750 875 z m 875 125 l 125 125 l 125 250 l 0 250 l 0 375 l 125 375 l 125 500 l 625 500 l 625 625 l 125 625 l 125 750 l 750 750 l 750 625 l 875 625 l 875 125 z m 250 375 l 250 250 l 625 250 l 625 375 l 250 375 z"},"à":{"ha":1000,"x_min":0,"x_max":875,"o":"m 250 1000 l 375 1000 l 375 875 l 250 875 l 250 1000 z m 750 625 l 875 625 l 875 125 l 125 125 l 125 250 l 0 250 l 0 375 l 125 375 l 125 500 l 625 500 l 625 625 l 125 625 l 125 750 l 375 750 l 375 875 l 500 875 l 500 750 l 750 750 l 750 625 z m 625 250 l 625 375 l 250 375 l 250 250 l 625 250 z"},"å":{"ha":1000,"x_min":0,"x_max":875,"o":"m 875 125 l 125 125 l 125 250 l 0 250 l 0 375 l 125 375 l 125 500 l 625 500 l 625 625 l 125 625 l 125 750 l 250 750 l 250 875 l 375 875 l 375 1000 l 500 1000 l 500 875 l 625 875 l 625 750 l 750 750 l 750 625 l 875 625 l 875 125 z m 375 875 l 375 750 l 500 750 l 500 875 l 375 875 z m 250 375 l 250 250 l 625 250 l 625 375 l 250 375 z"},"ã":{"ha":1000,"x_min":0,"x_max":875,"o":"m 875 125 l 125 125 l 125 250 l 0 250 l 0 375 l 125 375 l 125 500 l 625 500 l 625 625 l 125 625 l 125 875 l 250 875 l 250 1000 l 500 1000 l 500 875 l 625 875 l 625 1000 l 750 1000 l 750 875 l 625 875 l 625 750 l 750 750 l 750 625 l 875 625 l 875 125 z m 250 875 l 250 750 l 375 750 l 375 875 l 250 875 z m 250 375 l 250 250 l 625 250 l 625 375 l 250 375 z"},"æ":{"ha":1000,"x_min":0,"x_max":875,"o":"m 750 125 l 125 125 l 125 250 l 0 250 l 0 375 l 125 375 l 125 500 l 375 500 l 375 625 l 125 625 l 125 750 l 750 750 l 750 625 l 875 625 l 875 375 l 500 375 l 500 250 l 750 250 l 750 125 z m 500 625 l 500 500 l 625 500 l 625 625 l 500 625 z m 250 375 l 250 250 l 375 250 l 375 375 l 250 375 z"},"b":{"ha":1000,"x_min":0,"x_max":875,"o":"m 750 125 l 125 125 l 125 250 l 0 250 l 0 1000 l 250 1000 l 250 750 l 750 750 l 750 625 l 875 625 l 875 250 l 750 250 l 750 125 z m 250 625 l 250 250 l 625 250 l 625 625 l 250 625 z"},"c":{"ha":1000,"x_min":0,"x_max":875,"o":"m 875 125 l 125 125 l 125 250 l 0 250 l 0 625 l 125 625 l 125 750 l 875 750 l 875 625 l 250 625 l 250 250 l 875 250 l 875 125 z"},"ç":{"ha":1000,"x_min":0,"x_max":875,"o":"m 125 750 l 875 750 l 875 625 l 250 625 l 250 375 l 875 375 l 875 250 l 625 250 l 625 125 l 500 125 l 500 250 l 125 250 l 125 375 l 0 375 l 0 625 l 125 625 l 125 750 z m 250 0 l 250 125 l 500 125 l 500 0 l 250 0 z"},"d":{"ha":1000,"x_min":0,"x_max":875,"o":"m 875 125 l 125 125 l 125 250 l 0 250 l 0 625 l 125 625 l 125 750 l 625 750 l 625 1000 l 875 1000 l 875 125 z m 250 625 l 250 250 l 625 250 l 625 625 l 250 625 z"},"ð":{"ha":1000,"x_min":0,"x_max":875,"o":"m 750 500 l 875 500 l 875 250 l 750 250 l 750 125 l 125 125 l 125 250 l 0 250 l 0 500 l 125 500 l 125 625 l 375 625 l 375 750 l 125 750 l 125 1000 l 375 1000 l 375 875 l 625 875 l 625 625 l 750 625 l 750 500 z m 750 1000 l 750 875 l 625 875 l 625 1000 l 750 1000 z m 0 750 l 125 750 l 125 625 l 0 625 l 0 750 z m 625 250 l 625 500 l 250 500 l 250 250 l 625 250 z"},"e":{"ha":1000,"x_min":0,"x_max":875,"o":"m 750 125 l 125 125 l 125 250 l 0 250 l 0 625 l 125 625 l 125 750 l 750 750 l 750 625 l 875 625 l 875 375 l 250 375 l 250 250 l 750 250 l 750 125 z m 250 625 l 250 500 l 625 500 l 625 625 l 250 625 z"},"é":{"ha":1000,"x_min":0,"x_max":875,"o":"m 625 1000 l 625 875 l 500 875 l 500 1000 l 625 1000 z m 750 625 l 875 625 l 875 375 l 250 375 l 250 250 l 750 250 l 750 125 l 125 125 l 125 250 l 0 250 l 0 625 l 125 625 l 125 750 l 375 750 l 375 875 l 500 875 l 500 750 l 750 750 l 750 625 z m 625 500 l 625 625 l 250 625 l 250 500 l 625 500 z"},"ê":{"ha":1000,"x_min":0,"x_max":875,"o":"m 750 125 l 125 125 l 125 250 l 0 250 l 0 625 l 125 625 l 125 875 l 250 875 l 250 1000 l 625 1000 l 625 875 l 750 875 l 750 625 l 875 625 l 875 375 l 250 375 l 250 250 l 750 250 l 750 125 z m 375 875 l 375 750 l 500 750 l 500 875 l 375 875 z m 250 625 l 250 500 l 625 500 l 625 625 l 250 625 z"},"ë":{"ha":1000,"x_min":0,"x_max":875,"o":"m 375 875 l 125 875 l 125 1000 l 375 1000 l 375 875 z m 750 875 l 500 875 l 500 1000 l 750 1000 l 750 875 z m 750 125 l 125 125 l 125 250 l 0 250 l 0 625 l 125 625 l 125 750 l 750 750 l 750 625 l 875 625 l 875 375 l 250 375 l 250 250 l 750 250 l 750 125 z m 250 625 l 250 500 l 625 500 l 625 625 l 250 625 z"},"è":{"ha":1000,"x_min":0,"x_max":875,"o":"m 250 1000 l 375 1000 l 375 875 l 250 875 l 250 1000 z m 750 625 l 875 625 l 875 375 l 250 375 l 250 250 l 750 250 l 750 125 l 125 125 l 125 250 l 0 250 l 0 625 l 125 625 l 125 750 l 375 750 l 375 875 l 500 875 l 500 750 l 750 750 l 750 625 z m 625 500 l 625 625 l 250 625 l 250 500 l 625 500 z"},"f":{"ha":1000,"x_min":125,"x_max":875,"o":"m 625 125 l 375 125 l 375 625 l 125 625 l 125 750 l 375 750 l 375 875 l 500 875 l 500 1000 l 875 1000 l 875 875 l 625 875 l 625 750 l 875 750 l 875 625 l 625 625 l 625 125 z"},"g":{"ha":1000,"x_min":0,"x_max":875,"o":"m 750 0 l 125 0 l 125 125 l 625 125 l 625 250 l 125 250 l 125 375 l 0 375 l 0 625 l 125 625 l 125 750 l 875 750 l 875 125 l 750 125 l 750 0 z m 250 625 l 250 375 l 625 375 l 625 625 l 250 625 z"},"h":{"ha":1000,"x_min":0,"x_max":875,"o":"m 250 125 l 0 125 l 0 1000 l 250 1000 l 250 750 l 750 750 l 750 625 l 875 625 l 875 125 l 625 125 l 625 625 l 250 625 l 250 125 z"},"i":{"ha":1000,"x_min":125,"x_max":875,"o":"m 625 875 l 375 875 l 375 1000 l 625 1000 l 625 875 z m 875 125 l 125 125 l 125 250 l 375 250 l 375 625 l 250 625 l 250 750 l 625 750 l 625 250 l 875 250 l 875 125 z"},"í":{"ha":1000,"x_min":125,"x_max":875,"o":"m 625 1000 l 625 875 l 500 875 l 500 1000 l 625 1000 z m 500 875 l 500 750 l 375 750 l 375 875 l 500 875 z m 625 250 l 875 250 l 875 125 l 125 125 l 125 250 l 375 250 l 375 500 l 250 500 l 250 625 l 625 625 l 625 250 z"},"î":{"ha":1000,"x_min":125,"x_max":875,"o":"m 375 750 l 125 750 l 125 875 l 250 875 l 250 1000 l 625 1000 l 625 875 l 750 875 l 750 750 l 500 750 l 500 875 l 375 875 l 375 750 z m 875 125 l 125 125 l 125 250 l 375 250 l 375 500 l 250 500 l 250 625 l 625 625 l 625 250 l 875 250 l 875 125 z"},"ï":{"ha":1000,"x_min":125,"x_max":875,"o":"m 375 875 l 125 875 l 125 1000 l 375 1000 l 375 875 z m 750 875 l 500 875 l 500 1000 l 750 1000 l 750 875 z m 875 125 l 125 125 l 125 250 l 375 250 l 375 625 l 250 625 l 250 750 l 625 750 l 625 250 l 875 250 l 875 125 z"},"ì":{"ha":1000,"x_min":125,"x_max":875,"o":"m 375 1000 l 375 875 l 250 875 l 250 1000 l 375 1000 z m 500 750 l 375 750 l 375 875 l 500 875 l 500 750 z m 625 250 l 875 250 l 875 125 l 125 125 l 125 250 l 375 250 l 375 500 l 250 500 l 250 625 l 625 625 l 625 250 z"},"j":{"ha":1000,"x_min":125,"x_max":750,"o":"m 750 875 l 500 875 l 500 1000 l 750 1000 l 750 875 z m 625 0 l 125 0 l 125 125 l 500 125 l 500 625 l 375 625 l 375 750 l 750 750 l 750 125 l 625 125 l 625 0 z"},"k":{"ha":1000,"x_min":0,"x_max":875,"o":"m 250 125 l 0 125 l 0 1000 l 250 1000 l 250 500 l 500 500 l 500 625 l 625 625 l 625 750 l 875 750 l 875 625 l 750 625 l 750 500 l 625 500 l 625 375 l 750 375 l 750 250 l 875 250 l 875 125 l 625 125 l 625 250 l 500 250 l 500 375 l 250 375 l 250 125 z"},"l":{"ha":1000,"x_min":125,"x_max":875,"o":"m 875 125 l 125 125 l 125 250 l 375 250 l 375 875 l 250 875 l 250 1000 l 625 1000 l 625 250 l 875 250 l 875 125 z"},"m":{"ha":1000,"x_min":0,"x_max":875,"o":"m 125 125 l 0 125 l 0 750 l 750 750 l 750 625 l 875 625 l 875 125 l 625 125 l 625 625 l 500 625 l 500 125 l 250 125 l 250 625 l 125 625 l 125 125 z"},"n":{"ha":1000,"x_min":0,"x_max":875,"o":"m 250 125 l 0 125 l 0 750 l 750 750 l 750 625 l 875 625 l 875 125 l 625 125 l 625 625 l 250 625 l 250 125 z"},"ñ":{"ha":1000,"x_min":0,"x_max":875,"o":"m 250 125 l 0 125 l 0 750 l 125 750 l 125 875 l 250 875 l 250 1000 l 500 1000 l 500 875 l 625 875 l 625 1000 l 750 1000 l 750 875 l 625 875 l 625 750 l 750 750 l 750 625 l 875 625 l 875 125 l 625 125 l 625 625 l 250 625 l 250 125 z m 250 875 l 250 750 l 375 750 l 375 875 l 250 875 z"},"o":{"ha":1000,"x_min":0,"x_max":875,"o":"m 750 125 l 125 125 l 125 250 l 0 250 l 0 625 l 125 625 l 125 750 l 750 750 l 750 625 l 875 625 l 875 250 l 750 250 l 750 125 z m 250 625 l 250 250 l 625 250 l 625 625 l 250 625 z"},"ó":{"ha":1000,"x_min":0,"x_max":875,"o":"m 625 1000 l 625 875 l 500 875 l 500 1000 l 625 1000 z m 750 625 l 875 625 l 875 250 l 750 250 l 750 125 l 125 125 l 125 250 l 0 250 l 0 625 l 125 625 l 125 750 l 375 750 l 375 875 l 500 875 l 500 750 l 750 750 l 750 625 z m 625 250 l 625 625 l 250 625 l 250 250 l 625 250 z"},"ô":{"ha":1000,"x_min":0,"x_max":875,"o":"m 750 125 l 125 125 l 125 250 l 0 250 l 0 625 l 125 625 l 125 875 l 250 875 l 250 1000 l 625 1000 l 625 875 l 750 875 l 750 625 l 875 625 l 875 250 l 750 250 l 750 125 z m 375 875 l 375 750 l 500 750 l 500 875 l 375 875 z m 250 625 l 250 250 l 625 250 l 625 625 l 250 625 z"},"ö":{"ha":1000,"x_min":0,"x_max":875,"o":"m 375 875 l 125 875 l 125 1000 l 375 1000 l 375 875 z m 750 875 l 500 875 l 500 1000 l 750 1000 l 750 875 z m 750 125 l 125 125 l 125 250 l 0 250 l 0 625 l 125 625 l 125 750 l 750 750 l 750 625 l 875 625 l 875 250 l 750 250 l 750 125 z m 250 625 l 250 250 l 625 250 l 625 625 l 250 625 z"},"ò":{"ha":1000,"x_min":0,"x_max":875,"o":"m 250 1000 l 375 1000 l 375 875 l 250 875 l 250 1000 z m 750 625 l 875 625 l 875 250 l 750 250 l 750 125 l 125 125 l 125 250 l 0 250 l 0 625 l 125 625 l 125 750 l 375 750 l 375 875 l 500 875 l 500 750 l 750 750 l 750 625 z m 625 250 l 625 625 l 250 625 l 250 250 l 625 250 z"},"ø":{"ha":1000,"x_min":0,"x_max":875,"o":"m 750 125 l 125 125 l 125 250 l 0 250 l 0 625 l 125 625 l 125 750 l 750 750 l 750 625 l 875 625 l 875 250 l 750 250 l 750 125 z m 375 375 l 375 250 l 625 250 l 625 500 l 500 500 l 500 625 l 250 625 l 250 375 l 375 375 z m 500 375 l 375 375 l 375 500 l 500 500 l 500 375 z"},"õ":{"ha":1000,"x_min":0,"x_max":875,"o":"m 750 125 l 125 125 l 125 250 l 0 250 l 0 625 l 125 625 l 125 875 l 250 875 l 250 1000 l 500 1000 l 500 875 l 625 875 l 625 1000 l 750 1000 l 750 875 l 625 875 l 625 750 l 750 750 l 750 625 l 875 625 l 875 250 l 750 250 l 750 125 z m 250 875 l 250 750 l 375 750 l 375 875 l 250 875 z m 250 625 l 250 250 l 625 250 l 625 625 l 250 625 z"},"p":{"ha":1000,"x_min":0,"x_max":875,"o":"m 250 0 l 0 0 l 0 750 l 750 750 l 750 625 l 875 625 l 875 375 l 750 375 l 750 250 l 250 250 l 250 0 z m 250 625 l 250 375 l 625 375 l 625 625 l 250 625 z"},"þ":{"ha":1000,"x_min":0,"x_max":875,"o":"m 250 0 l 0 0 l 0 1000 l 250 1000 l 250 750 l 750 750 l 750 625 l 875 625 l 875 375 l 750 375 l 750 250 l 250 250 l 250 0 z m 250 625 l 250 375 l 625 375 l 625 625 l 250 625 z"},"q":{"ha":1000,"x_min":0,"x_max":875,"o":"m 875 0 l 625 0 l 625 250 l 125 250 l 125 375 l 0 375 l 0 625 l 125 625 l 125 750 l 875 750 l 875 0 z m 250 625 l 250 375 l 625 375 l 625 625 l 250 625 z"},"r":{"ha":1000,"x_min":125,"x_max":875,"o":"m 375 750 l 375 625 l 500 625 l 500 500 l 375 500 l 375 125 l 125 125 l 125 750 l 375 750 z m 500 750 l 875 750 l 875 625 l 500 625 l 500 750 z"},"s":{"ha":1000,"x_min":0,"x_max":875,"o":"m 750 125 l 0 125 l 0 250 l 625 250 l 625 375 l 125 375 l 125 500 l 0 500 l 0 625 l 125 625 l 125 750 l 750 750 l 750 625 l 250 625 l 250 500 l 750 500 l 750 375 l 875 375 l 875 250 l 750 250 l 750 125 z"},"ß":{"ha":1000,"x_min":125,"x_max":875,"o":"m 750 875 l 875 875 l 875 625 l 750 625 l 750 500 l 875 500 l 875 250 l 750 250 l 750 125 l 500 125 l 500 250 l 625 250 l 625 500 l 500 500 l 500 625 l 625 625 l 625 875 l 375 875 l 375 375 l 500 375 l 500 250 l 375 250 l 375 125 l 125 125 l 125 875 l 250 875 l 250 1000 l 750 1000 l 750 875 z"},"t":{"ha":1000,"x_min":125,"x_max":875,"o":"m 625 125 l 375 125 l 375 625 l 125 625 l 125 750 l 375 750 l 375 1000 l 625 1000 l 625 750 l 875 750 l 875 625 l 625 625 l 625 125 z"},"u":{"ha":1000,"x_min":0,"x_max":875,"o":"m 875 125 l 125 125 l 125 250 l 0 250 l 0 750 l 250 750 l 250 250 l 625 250 l 625 750 l 875 750 l 875 125 z"},"ú":{"ha":1000,"x_min":0,"x_max":875,"o":"m 625 1000 l 625 875 l 500 875 l 500 1000 l 625 1000 z m 500 875 l 500 750 l 375 750 l 375 875 l 500 875 z m 625 750 l 875 750 l 875 125 l 125 125 l 125 250 l 0 250 l 0 750 l 250 750 l 250 250 l 625 250 l 625 750 z"},"û":{"ha":1000,"x_min":0,"x_max":875,"o":"m 375 750 l 125 750 l 125 875 l 250 875 l 250 1000 l 625 1000 l 625 875 l 750 875 l 750 750 l 500 750 l 500 875 l 375 875 l 375 750 z m 875 125 l 125 125 l 125 250 l 0 250 l 0 625 l 250 625 l 250 250 l 625 250 l 625 625 l 875 625 l 875 125 z"},"ü":{"ha":1000,"x_min":0,"x_max":875,"o":"m 375 875 l 125 875 l 125 1000 l 375 1000 l 375 875 z m 750 875 l 500 875 l 500 1000 l 750 1000 l 750 875 z m 875 125 l 125 125 l 125 250 l 0 250 l 0 750 l 250 750 l 250 250 l 625 250 l 625 750 l 875 750 l 875 125 z"},"ù":{"ha":1000,"x_min":0,"x_max":875,"o":"m 375 1000 l 375 875 l 250 875 l 250 1000 l 375 1000 z m 500 750 l 375 750 l 375 875 l 500 875 l 500 750 z m 625 750 l 875 750 l 875 125 l 125 125 l 125 250 l 0 250 l 0 750 l 250 750 l 250 250 l 625 250 l 625 750 z"},"v":{"ha":1000,"x_min":125,"x_max":875,"o":"m 625 125 l 375 125 l 375 250 l 250 250 l 250 375 l 125 375 l 125 750 l 375 750 l 375 375 l 625 375 l 625 750 l 875 750 l 875 375 l 750 375 l 750 250 l 625 250 l 625 125 z"},"w":{"ha":1000,"x_min":0,"x_max":875,"o":"m 250 750 l 250 250 l 375 250 l 375 125 l 125 125 l 125 250 l 0 250 l 0 750 l 250 750 z m 375 750 l 500 750 l 500 250 l 375 250 l 375 750 z m 625 750 l 875 750 l 875 250 l 750 250 l 750 125 l 500 125 l 500 250 l 625 250 l 625 750 z"},"x":{"ha":1000,"x_min":0,"x_max":875,"o":"m 250 125 l 0 125 l 0 250 l 125 250 l 125 375 l 250 375 l 250 500 l 125 500 l 125 625 l 0 625 l 0 750 l 250 750 l 250 625 l 375 625 l 375 500 l 500 500 l 500 625 l 625 625 l 625 750 l 875 750 l 875 625 l 750 625 l 750 500 l 625 500 l 625 375 l 750 375 l 750 250 l 875 250 l 875 125 l 625 125 l 625 250 l 500 250 l 500 375 l 375 375 l 375 250 l 250 250 l 250 125 z"},"y":{"ha":1000,"x_min":0,"x_max":875,"o":"m 750 0 l 125 0 l 125 125 l 625 125 l 625 250 l 125 250 l 125 375 l 0 375 l 0 750 l 250 750 l 250 375 l 625 375 l 625 750 l 875 750 l 875 125 l 750 125 l 750 0 z"},"ý":{"ha":1000,"x_min":0,"x_max":875,"o":"m 625 1000 l 625 875 l 500 875 l 500 1000 l 625 1000 z m 500 875 l 500 750 l 375 750 l 375 875 l 500 875 z m 625 750 l 875 750 l 875 125 l 750 125 l 750 0 l 125 0 l 125 125 l 625 125 l 625 250 l 125 250 l 125 375 l 0 375 l 0 750 l 250 750 l 250 375 l 625 375 l 625 750 z"},"ÿ":{"ha":1000,"x_min":0,"x_max":875,"o":"m 375 875 l 125 875 l 125 1000 l 375 1000 l 375 875 z m 750 875 l 500 875 l 500 1000 l 750 1000 l 750 875 z m 750 0 l 125 0 l 125 125 l 625 125 l 625 250 l 125 250 l 125 375 l 0 375 l 0 750 l 250 750 l 250 375 l 625 375 l 625 750 l 875 750 l 875 125 l 750 125 l 750 0 z"},"z":{"ha":1000,"x_min":0,"x_max":875,"o":"m 875 125 l 0 125 l 0 250 l 125 250 l 125 375 l 250 375 l 250 500 l 375 500 l 375 625 l 0 625 l 0 750 l 875 750 l 875 625 l 750 625 l 750 500 l 625 500 l 625 375 l 500 375 l 500 250 l 875 250 l 875 125 z"},"ª":{"ha":1000,"x_min":125,"x_max":750,"o":"m 750 500 l 250 500 l 250 625 l 125 625 l 125 750 l 250 750 l 250 875 l 125 875 l 125 1000 l 625 1000 l 625 875 l 750 875 l 750 500 z m 375 750 l 375 625 l 500 625 l 500 750 l 375 750 z"},"º":{"ha":1000,"x_min":125,"x_max":750,"o":"m 625 500 l 250 500 l 250 625 l 125 625 l 125 875 l 250 875 l 250 1000 l 625 1000 l 625 875 l 750 875 l 750 625 l 625 625 l 625 500 z m 375 875 l 375 625 l 500 625 l 500 875 l 375 875 z"},"¹":{"ha":1000,"x_min":250,"x_max":750,"o":"m 750 500 l 250 500 l 250 625 l 375 625 l 375 750 l 250 750 l 250 875 l 375 875 l 375 1000 l 625 1000 l 625 625 l 750 625 l 750 500 z"},"²":{"ha":1000,"x_min":250,"x_max":750,"o":"m 750 500 l 250 500 l 250 625 l 375 625 l 375 750 l 500 750 l 500 875 l 250 875 l 250 1000 l 625 1000 l 625 875 l 750 875 l 750 750 l 625 750 l 625 625 l 750 625 l 750 500 z"},"³":{"ha":1000,"x_min":250,"x_max":750,"o":"m 625 500 l 250 500 l 250 625 l 500 625 l 500 750 l 375 750 l 375 875 l 250 875 l 250 1000 l 750 1000 l 750 875 l 625 875 l 625 750 l 750 750 l 750 625 l 625 625 l 625 500 z"},"½":{"ha":1000,"x_min":0,"x_max":875,"o":"m 125 1000 l 250 1000 l 250 500 l 125 500 l 125 750 l 0 750 l 0 875 l 125 875 l 125 1000 z m 750 1000 l 875 1000 l 875 875 l 750 875 l 750 1000 z m 625 750 l 625 875 l 750 875 l 750 750 l 625 750 z m 500 625 l 500 750 l 625 750 l 625 625 l 500 625 z m 375 500 l 375 625 l 500 625 l 500 500 l 375 500 z m 750 500 l 625 500 l 625 625 l 875 625 l 875 375 l 750 375 l 750 500 z m 250 375 l 250 500 l 375 500 l 375 375 l 250 375 z m 125 250 l 125 375 l 250 375 l 250 250 l 125 250 z m 625 250 l 625 375 l 750 375 l 750 250 l 875 250 l 875 125 l 500 125 l 500 250 l 625 250 z m 0 125 l 0 250 l 125 250 l 125 125 l 0 125 z"},"¼":{"ha":1000,"x_min":0,"x_max":875,"o":"m 125 1000 l 250 1000 l 250 500 l 125 500 l 125 750 l 0 750 l 0 875 l 125 875 l 125 1000 z m 750 1000 l 875 1000 l 875 875 l 750 875 l 750 1000 z m 625 750 l 625 875 l 750 875 l 750 750 l 625 750 z m 500 625 l 500 750 l 625 750 l 625 625 l 500 625 z m 375 500 l 375 625 l 500 625 l 500 500 l 375 500 z m 750 500 l 750 625 l 875 625 l 875 125 l 750 125 l 750 250 l 500 250 l 500 375 l 625 375 l 625 500 l 750 500 z m 250 375 l 250 500 l 375 500 l 375 375 l 250 375 z m 125 250 l 125 375 l 250 375 l 250 250 l 125 250 z m 0 125 l 0 250 l 125 250 l 125 125 l 0 125 z"},"¾":{"ha":1000,"x_min":0,"x_max":875,"o":"m 375 875 l 250 875 l 250 750 l 125 750 l 125 875 l 0 875 l 0 1000 l 375 1000 l 375 875 z m 750 1000 l 875 1000 l 875 875 l 750 875 l 750 1000 z m 625 750 l 625 875 l 750 875 l 750 750 l 625 750 z m 375 750 l 375 625 l 250 625 l 250 750 l 375 750 z m 500 625 l 500 750 l 625 750 l 625 625 l 500 625 z m 0 625 l 250 625 l 250 500 l 0 500 l 0 625 z m 375 500 l 375 625 l 500 625 l 500 500 l 375 500 z m 750 500 l 750 625 l 875 625 l 875 125 l 750 125 l 750 250 l 500 250 l 500 375 l 625 375 l 625 500 l 750 500 z m 250 375 l 250 500 l 375 500 l 375 375 l 250 375 z m 125 250 l 125 375 l 250 375 l 250 250 l 125 250 z m 0 125 l 0 250 l 125 250 l 125 125 l 0 125 z"},"*":{"ha":1000,"x_min":0,"x_max":875,"o":"m 375 250 l 125 250 l 125 375 l 250 375 l 250 500 l 0 500 l 0 625 l 250 625 l 250 750 l 125 750 l 125 875 l 375 875 l 375 750 l 500 750 l 500 875 l 750 875 l 750 750 l 625 750 l 625 625 l 875 625 l 875 500 l 625 500 l 625 375 l 750 375 l 750 250 l 500 250 l 500 375 l 375 375 l 375 250 z"},"\\":{"ha":1000,"x_min":0,"x_max":875,"o":"m 0 1000 l 125 1000 l 125 875 l 0 875 l 0 1000 z m 125 875 l 250 875 l 250 750 l 125 750 l 125 875 z m 250 750 l 375 750 l 375 625 l 250 625 l 250 750 z m 375 625 l 500 625 l 500 500 l 375 500 l 375 625 z m 500 500 l 625 500 l 625 375 l 500 375 l 500 500 z m 625 375 l 750 375 l 750 250 l 625 250 l 625 375 z m 750 250 l 875 250 l 875 125 l 750 125 l 750 250 z"},"·":{"ha":1000,"x_min":250,"x_max":500,"o":"m 500 375 l 250 375 l 250 625 l 500 625 l 500 375 z"},":":{"ha":1000,"x_min":250,"x_max":500,"o":"m 500 625 l 250 625 l 250 875 l 500 875 l 500 625 z m 500 250 l 250 250 l 250 500 l 500 500 l 500 250 z"},",":{"ha":1000,"x_min":125,"x_max":500,"o":"m 375 0 l 125 0 l 125 125 l 250 125 l 250 375 l 500 375 l 500 125 l 375 125 l 375 0 z"},"!":{"ha":1000,"x_min":250,"x_max":625,"o":"m 500 375 l 250 375 l 250 1000 l 625 1000 l 625 625 l 500 625 l 500 375 z m 500 125 l 250 125 l 250 250 l 500 250 l 500 125 z"},"¡":{"ha":1000,"x_min":250,"x_max":625,"o":"m 625 875 l 375 875 l 375 1000 l 625 1000 l 625 875 z m 625 125 l 250 125 l 250 500 l 375 500 l 375 750 l 625 750 l 625 125 z"},"#":{"ha":1000,"x_min":0,"x_max":875,"o":"m 375 125 l 125 125 l 125 250 l 0 250 l 0 375 l 125 375 l 125 750 l 0 750 l 0 875 l 125 875 l 125 1000 l 375 1000 l 375 875 l 500 875 l 500 1000 l 750 1000 l 750 875 l 875 875 l 875 750 l 750 750 l 750 375 l 875 375 l 875 250 l 750 250 l 750 125 l 500 125 l 500 250 l 375 250 l 375 125 z m 375 750 l 375 375 l 500 375 l 500 750 l 375 750 z"},".":{"ha":1000,"x_min":250,"x_max":500,"o":"m 500 125 l 250 125 l 250 375 l 500 375 l 500 125 z"},"?":{"ha":1000,"x_min":0,"x_max":875,"o":"m 625 375 l 250 375 l 250 500 l 500 500 l 500 625 l 625 625 l 625 750 l 250 750 l 250 625 l 0 625 l 0 875 l 125 875 l 125 1000 l 750 1000 l 750 875 l 875 875 l 875 625 l 750 625 l 750 500 l 625 500 l 625 375 z m 625 125 l 250 125 l 250 250 l 625 250 l 625 125 z"},"¿":{"ha":1000,"x_min":0,"x_max":875,"o":"m 625 875 l 250 875 l 250 1000 l 625 1000 l 625 875 z m 750 125 l 125 125 l 125 250 l 0 250 l 0 500 l 125 500 l 125 625 l 250 625 l 250 750 l 625 750 l 625 625 l 375 625 l 375 500 l 250 500 l 250 375 l 625 375 l 625 500 l 875 500 l 875 250 l 750 250 l 750 125 z"},"\"":{"ha":1000,"x_min":125,"x_max":750,"o":"m 375 625 l 125 625 l 125 1000 l 375 1000 l 375 625 z m 750 625 l 500 625 l 500 1000 l 750 1000 l 750 625 z"},"'":{"ha":1000,"x_min":250,"x_max":500,"o":"m 500 625 l 250 625 l 250 1000 l 500 1000 l 500 625 z"},";":{"ha":1000,"x_min":125,"x_max":500,"o":"m 500 625 l 250 625 l 250 875 l 500 875 l 500 625 z m 375 125 l 125 125 l 125 250 l 250 250 l 250 500 l 500 500 l 500 250 l 375 250 l 375 125 z"},"/":{"ha":1000,"x_min":0,"x_max":875,"o":"m 750 1000 l 875 1000 l 875 875 l 750 875 l 750 1000 z m 625 750 l 625 875 l 750 875 l 750 750 l 625 750 z m 500 625 l 500 750 l 625 750 l 625 625 l 500 625 z m 375 500 l 375 625 l 500 625 l 500 500 l 375 500 z m 250 375 l 250 500 l 375 500 l 375 375 l 250 375 z m 125 250 l 125 375 l 250 375 l 250 250 l 125 250 z m 0 125 l 0 250 l 125 250 l 125 125 l 0 125 z"},"_":{"ha":1000,"x_min":0,"x_max":875,"o":"m 875 0 l 0 0 l 0 125 l 875 125 l 875 0 z"},"{":{"ha":1000,"x_min":250,"x_max":750,"o":"m 750 125 l 500 125 l 500 250 l 375 250 l 375 500 l 250 500 l 250 625 l 375 625 l 375 875 l 500 875 l 500 1000 l 750 1000 l 750 875 l 625 875 l 625 625 l 500 625 l 500 500 l 625 500 l 625 250 l 750 250 l 750 125 z"},"}":{"ha":1000,"x_min":125,"x_max":625,"o":"m 375 125 l 125 125 l 125 250 l 250 250 l 250 500 l 375 500 l 375 625 l 250 625 l 250 875 l 125 875 l 125 1000 l 375 1000 l 375 875 l 500 875 l 500 625 l 625 625 l 625 500 l 500 500 l 500 250 l 375 250 l 375 125 z"},"[":{"ha":1000,"x_min":250,"x_max":750,"o":"m 750 125 l 250 125 l 250 1000 l 750 1000 l 750 875 l 500 875 l 500 250 l 750 250 l 750 125 z"},"]":{"ha":1000,"x_min":125,"x_max":625,"o":"m 625 125 l 125 125 l 125 250 l 375 250 l 375 875 l 125 875 l 125 1000 l 625 1000 l 625 125 z"},"(":{"ha":1000,"x_min":250,"x_max":750,"o":"m 750 125 l 500 125 l 500 250 l 375 250 l 375 375 l 250 375 l 250 750 l 375 750 l 375 875 l 500 875 l 500 1000 l 750 1000 l 750 875 l 625 875 l 625 750 l 500 750 l 500 375 l 625 375 l 625 250 l 750 250 l 750 125 z"},")":{"ha":1000,"x_min":125,"x_max":625,"o":"m 375 125 l 125 125 l 125 250 l 250 250 l 250 375 l 375 375 l 375 750 l 250 750 l 250 875 l 125 875 l 125 1000 l 375 1000 l 375 875 l 500 875 l 500 750 l 625 750 l 625 375 l 500 375 l 500 250 l 375 250 l 375 125 z"},"-":{"ha":1000,"x_min":125,"x_max":875,"o":"m 875 500 l 125 500 l 125 625 l 875 625 l 875 500 z"},"­":{"ha":1000,"x_min":125,"x_max":875,"o":"m 875 500 l 125 500 l 125 625 l 875 625 l 875 500 z"},"«":{"ha":1000,"x_min":0,"x_max":875,"o":"m 500 250 l 250 250 l 250 375 l 125 375 l 125 500 l 0 500 l 0 625 l 125 625 l 125 750 l 250 750 l 250 875 l 500 875 l 500 750 l 625 750 l 625 875 l 875 875 l 875 750 l 750 750 l 750 625 l 625 625 l 625 500 l 750 500 l 750 375 l 875 375 l 875 250 l 625 250 l 625 375 l 500 375 l 500 250 z m 375 500 l 375 375 l 500 375 l 500 500 l 375 500 l 375 625 l 500 625 l 500 750 l 375 750 l 375 625 l 250 625 l 250 500 l 375 500 z"},"»":{"ha":1000,"x_min":0,"x_max":875,"o":"m 250 250 l 0 250 l 0 375 l 125 375 l 125 500 l 250 500 l 250 625 l 125 625 l 125 750 l 0 750 l 0 875 l 250 875 l 250 750 l 375 750 l 375 875 l 625 875 l 625 750 l 750 750 l 750 625 l 875 625 l 875 500 l 750 500 l 750 375 l 625 375 l 625 250 l 375 250 l 375 375 l 250 375 l 250 250 z m 375 500 l 375 375 l 500 375 l 500 500 l 625 500 l 625 625 l 500 625 l 500 750 l 375 750 l 375 625 l 500 625 l 500 500 l 375 500 z"}," ":{"ha":1000,"x_min":0,"x_max":0,"o":""},"¢":{"ha":1000,"x_min":0,"x_max":875,"o":"m 500 125 l 375 125 l 375 250 l 125 250 l 125 375 l 0 375 l 0 750 l 125 750 l 125 875 l 375 875 l 375 1000 l 500 1000 l 500 875 l 750 875 l 750 750 l 875 750 l 875 625 l 625 625 l 625 750 l 500 750 l 500 375 l 625 375 l 625 500 l 875 500 l 875 375 l 750 375 l 750 250 l 500 250 l 500 125 z m 250 750 l 250 375 l 375 375 l 375 750 l 250 750 z"},"¤":{"ha":1000,"x_min":125,"x_max":875,"o":"m 125 875 l 250 875 l 250 750 l 125 750 l 125 875 z m 625 875 l 625 750 l 375 750 l 375 875 l 625 875 z m 750 875 l 875 875 l 875 750 l 750 750 l 750 875 z m 250 750 l 375 750 l 375 375 l 250 375 l 250 750 z m 625 375 l 625 750 l 750 750 l 750 375 l 625 375 z m 125 250 l 125 375 l 250 375 l 250 250 l 125 250 z m 375 250 l 375 375 l 625 375 l 625 250 l 375 250 z m 875 250 l 750 250 l 750 375 l 875 375 l 875 250 z"},"$":{"ha":1000,"x_min":0,"x_max":875,"o":"m 500 125 l 375 125 l 375 250 l 0 250 l 0 375 l 375 375 l 375 500 l 125 500 l 125 625 l 0 625 l 0 750 l 125 750 l 125 875 l 375 875 l 375 1000 l 500 1000 l 500 875 l 750 875 l 750 750 l 500 750 l 500 625 l 750 625 l 750 500 l 875 500 l 875 375 l 750 375 l 750 250 l 500 250 l 500 125 z m 250 750 l 250 625 l 375 625 l 375 750 l 250 750 z m 500 500 l 500 375 l 625 375 l 625 500 l 500 500 z"},"£":{"ha":1000,"x_min":0,"x_max":875,"o":"m 875 125 l 0 125 l 0 250 l 125 250 l 125 500 l 0 500 l 0 625 l 125 625 l 125 875 l 250 875 l 250 1000 l 750 1000 l 750 875 l 875 875 l 875 750 l 625 750 l 625 875 l 375 875 l 375 625 l 750 625 l 750 500 l 375 500 l 375 250 l 875 250 l 875 125 z"},"¥":{"ha":1000,"x_min":125,"x_max":875,"o":"m 625 125 l 375 125 l 375 250 l 125 250 l 125 375 l 375 375 l 375 500 l 125 500 l 125 625 l 250 625 l 250 750 l 125 750 l 125 1000 l 375 1000 l 375 750 l 625 750 l 625 1000 l 875 1000 l 875 750 l 750 750 l 750 625 l 875 625 l 875 500 l 625 500 l 625 375 l 875 375 l 875 250 l 625 250 l 625 125 z"},"+":{"ha":1000,"x_min":125,"x_max":875,"o":"m 625 250 l 375 250 l 375 500 l 125 500 l 125 625 l 375 625 l 375 875 l 625 875 l 625 625 l 875 625 l 875 500 l 625 500 l 625 250 z"},"×":{"ha":1000,"x_min":125,"x_max":750,"o":"m 125 875 l 250 875 l 250 750 l 125 750 l 125 875 z m 625 875 l 750 875 l 750 750 l 625 750 l 625 875 z m 250 750 l 375 750 l 375 625 l 250 625 l 250 750 z m 500 625 l 500 750 l 625 750 l 625 625 l 500 625 z m 375 500 l 375 625 l 500 625 l 500 500 l 375 500 z m 250 375 l 250 500 l 375 500 l 375 375 l 250 375 z m 625 375 l 500 375 l 500 500 l 625 500 l 625 375 z m 125 250 l 125 375 l 250 375 l 250 250 l 125 250 z m 750 250 l 625 250 l 625 375 l 750 375 l 750 250 z"},"÷":{"ha":1000,"x_min":125,"x_max":875,"o":"m 625 750 l 375 750 l 375 875 l 625 875 l 625 750 z m 875 500 l 125 500 l 125 625 l 875 625 l 875 500 z m 625 250 l 375 250 l 375 375 l 625 375 l 625 250 z"},"=":{"ha":1000,"x_min":0,"x_max":875,"o":"m 875 625 l 0 625 l 0 750 l 875 750 l 875 625 z m 875 375 l 0 375 l 0 500 l 875 500 l 875 375 z"},">":{"ha":1000,"x_min":125,"x_max":750,"o":"m 375 125 l 125 125 l 125 250 l 250 250 l 250 375 l 375 375 l 375 500 l 500 500 l 500 625 l 375 625 l 375 750 l 250 750 l 250 875 l 125 875 l 125 1000 l 375 1000 l 375 875 l 500 875 l 500 750 l 625 750 l 625 625 l 750 625 l 750 500 l 625 500 l 625 375 l 500 375 l 500 250 l 375 250 l 375 125 z"},"<":{"ha":1000,"x_min":125,"x_max":750,"o":"m 750 125 l 500 125 l 500 250 l 375 250 l 375 375 l 250 375 l 250 500 l 125 500 l 125 625 l 250 625 l 250 750 l 375 750 l 375 875 l 500 875 l 500 1000 l 750 1000 l 750 875 l 625 875 l 625 750 l 500 750 l 500 625 l 375 625 l 375 500 l 500 500 l 500 375 l 625 375 l 625 250 l 750 250 l 750 125 z"},"±":{"ha":1000,"x_min":125,"x_max":875,"o":"m 625 375 l 375 375 l 375 625 l 125 625 l 125 750 l 375 750 l 375 1000 l 625 1000 l 625 750 l 875 750 l 875 625 l 625 625 l 625 375 z m 875 125 l 125 125 l 125 250 l 875 250 l 875 125 z"},"~":{"ha":1000,"x_min":0,"x_max":875,"o":"m 625 625 l 625 500 l 750 500 l 750 375 l 375 375 l 375 500 l 250 500 l 250 625 l 125 625 l 125 750 l 500 750 l 500 625 l 625 625 z m 0 500 l 0 625 l 125 625 l 125 500 l 0 500 z m 750 625 l 875 625 l 875 500 l 750 500 l 750 625 z"},"¬":{"ha":1000,"x_min":125,"x_max":875,"o":"m 875 375 l 625 375 l 625 625 l 125 625 l 125 750 l 875 750 l 875 375 z"},"µ":{"ha":1000,"x_min":0,"x_max":875,"o":"m 250 750 l 250 250 l 500 250 l 500 125 l 250 125 l 250 0 l 0 0 l 0 750 l 250 750 z m 750 250 l 875 250 l 875 125 l 625 125 l 625 250 l 500 250 l 500 750 l 750 750 l 750 250 z"},"%":{"ha":1000,"x_min":0,"x_max":875,"o":"m 250 750 l 250 875 l 125 875 l 125 1000 l 375 1000 l 375 750 l 250 750 z m 750 1000 l 875 1000 l 875 875 l 750 875 l 750 1000 z m 250 750 l 250 625 l 0 625 l 0 875 l 125 875 l 125 750 l 250 750 z m 625 750 l 625 875 l 750 875 l 750 750 l 625 750 z m 500 625 l 500 750 l 625 750 l 625 625 l 500 625 z m 375 500 l 375 625 l 500 625 l 500 500 l 375 500 z m 250 375 l 250 500 l 375 500 l 375 375 l 250 375 z m 625 375 l 625 500 l 875 500 l 875 250 l 750 250 l 750 375 l 625 375 z m 125 250 l 125 375 l 250 375 l 250 250 l 125 250 z m 625 375 l 625 250 l 750 250 l 750 125 l 500 125 l 500 375 l 625 375 z m 0 125 l 0 250 l 125 250 l 125 125 l 0 125 z"},"@":{"ha":1000,"x_min":0,"x_max":875,"o":"m 125 1000 l 750 1000 l 750 875 l 125 875 l 125 1000 z m 0 250 l 0 875 l 125 875 l 125 250 l 0 250 z m 750 875 l 875 875 l 875 375 l 250 375 l 250 750 l 625 750 l 625 500 l 750 500 l 750 875 z m 500 500 l 500 625 l 375 625 l 375 500 l 500 500 z m 750 125 l 125 125 l 125 250 l 750 250 l 750 125 z"},"&":{"ha":1000,"x_min":0,"x_max":875,"o":"m 625 500 l 625 375 l 750 375 l 750 250 l 875 250 l 875 125 l 125 125 l 125 250 l 0 250 l 0 500 l 125 500 l 125 625 l 0 625 l 0 875 l 125 875 l 125 1000 l 500 1000 l 500 875 l 625 875 l 625 625 l 500 625 l 500 500 l 625 500 z m 250 875 l 250 625 l 375 625 l 375 875 l 250 875 z m 500 250 l 500 375 l 375 375 l 375 500 l 250 500 l 250 250 l 500 250 z m 750 500 l 875 500 l 875 375 l 750 375 l 750 500 z"},"¶":{"ha":1000,"x_min":125,"x_max":875,"o":"m 625 125 l 500 125 l 500 375 l 250 375 l 250 500 l 125 500 l 125 875 l 250 875 l 250 1000 l 875 1000 l 875 125 l 750 125 l 750 375 l 625 375 l 625 125 z m 375 625 l 375 500 l 500 500 l 500 875 l 375 875 l 375 750 l 250 750 l 250 625 l 375 625 z m 625 875 l 625 500 l 750 500 l 750 875 l 625 875 z"},"§":{"ha":1000,"x_min":125,"x_max":875,"o":"m 750 875 l 875 875 l 875 750 l 625 750 l 625 875 l 375 875 l 375 750 l 625 750 l 625 625 l 375 625 l 375 500 l 250 500 l 250 625 l 125 625 l 125 875 l 250 875 l 250 1000 l 750 1000 l 750 875 z m 375 500 l 625 500 l 625 625 l 750 625 l 750 500 l 875 500 l 875 250 l 750 250 l 750 125 l 250 125 l 250 250 l 125 250 l 125 375 l 375 375 l 375 250 l 625 250 l 625 375 l 375 375 l 375 500 z"},"©":{"ha":1000,"x_min":0,"x_max":1000,"o":"m 750 1000 l 750 875 l 250 875 l 250 1000 l 750 1000 z m 250 875 l 250 750 l 125 750 l 125 875 l 250 875 z m 875 750 l 750 750 l 750 875 l 875 875 l 875 750 z m 0 750 l 125 750 l 125 250 l 0 250 l 0 750 z m 375 625 l 375 750 l 625 750 l 625 625 l 375 625 z m 875 750 l 1000 750 l 1000 250 l 875 250 l 875 750 z m 250 375 l 250 625 l 375 625 l 375 375 l 250 375 z m 625 250 l 375 250 l 375 375 l 625 375 l 625 250 z m 125 250 l 250 250 l 250 125 l 125 125 l 125 250 z m 750 125 l 750 250 l 875 250 l 875 125 l 750 125 z m 250 0 l 250 125 l 750 125 l 750 0 l 250 0 z"},"®":{"ha":1000,"x_min":0,"x_max":1000,"o":"m 750 1000 l 750 875 l 250 875 l 250 1000 l 750 1000 z m 250 875 l 250 750 l 125 750 l 125 875 l 250 875 z m 875 750 l 750 750 l 750 875 l 875 875 l 875 750 z m 0 750 l 125 750 l 125 250 l 0 250 l 0 750 z m 375 250 l 250 250 l 250 750 l 625 750 l 625 625 l 375 625 l 375 500 l 625 500 l 625 375 l 375 375 l 375 250 z m 875 750 l 1000 750 l 1000 250 l 875 250 l 875 750 z m 750 500 l 625 500 l 625 625 l 750 625 l 750 500 z m 750 250 l 625 250 l 625 375 l 750 375 l 750 250 z m 125 250 l 250 250 l 250 125 l 125 125 l 125 250 z m 750 125 l 750 250 l 875 250 l 875 125 l 750 125 z m 250 0 l 250 125 l 750 125 l 750 0 l 250 0 z"},"°":{"ha":1000,"x_min":250,"x_max":625,"o":"m 500 1000 l 500 875 l 375 875 l 375 1000 l 500 1000 z m 250 875 l 375 875 l 375 750 l 250 750 l 250 875 z m 500 875 l 625 875 l 625 750 l 500 750 l 500 875 z m 375 625 l 375 750 l 500 750 l 500 625 l 375 625 z"},"|":{"ha":1000,"x_min":375,"x_max":625,"o":"m 625 125 l 375 125 l 375 1000 l 625 1000 l 625 125 z"},"¦":{"ha":1000,"x_min":375,"x_max":625,"o":"m 625 625 l 375 625 l 375 1000 l 625 1000 l 625 625 z m 625 125 l 375 125 l 375 500 l 625 500 l 625 125 z"},"^":{"ha":1000,"x_min":125,"x_max":750,"o":"m 375 750 l 125 750 l 125 875 l 250 875 l 250 1000 l 625 1000 l 625 875 l 750 875 l 750 750 l 500 750 l 500 875 l 375 875 l 375 750 z"},"´":{"ha":1000,"x_min":375,"x_max":625,"o":"m 500 1000 l 625 1000 l 625 875 l 500 875 l 500 1000 z m 375 750 l 375 875 l 500 875 l 500 750 l 375 750 z"},"¸":{"ha":1000,"x_min":250,"x_max":625,"o":"m 500 250 l 625 250 l 625 125 l 500 125 l 500 250 z m 250 0 l 250 125 l 500 125 l 500 0 l 250 0 z"},"¨":{"ha":1000,"x_min":125,"x_max":750,"o":"m 375 875 l 125 875 l 125 1000 l 375 1000 l 375 875 z m 750 875 l 500 875 l 500 1000 l 750 1000 l 750 875 z"},"`":{"ha":1000,"x_min":375,"x_max":625,"o":"m 375 1000 l 500 1000 l 500 875 l 375 875 l 375 1000 z m 500 875 l 625 875 l 625 750 l 500 750 l 500 875 z"},"¯":{"ha":1000,"x_min":125,"x_max":750,"o":"m 750 875 l 125 875 l 125 1000 l 750 1000 l 750 875 z"}}}
